PathFileType	4	(X/Y/Z)	T1_P1_NoVision_NoMovement_0_0-649.trc
DataRate	CameraRate	NumFrames	NumMarkers	Units	OrigDataRate	OrigDataStartFrame	OrigNumFrames
60	60	5	27	m	60	324	649
Frame#	Time	RHip			RKnee			RAnkle			RBigToe			RSmallToe			RHeel			LHip			LKnee			LAnkle			LBigToe			LSmallToe			LHeel			Neck			Head			Nose			RShoulder			RElbow			RWrist			RThumb			RIndex			RPinky			LShoulder			LElbow			LWrist			LThumb			LIndex			LPinky		
		X1	Y1	Z1	X2	Y2	Z2	X3	Y3	Z3	X4	Y4	Z4	X5	Y5	Z5	X6	Y6	Z6	X7	Y7	Z7	X8	Y8	Z8	X9	Y9	Z9	X10	Y10	Z10	X11	Y11	Z11	X12	Y12	Z12	X13	Y13	Z13	X14	Y14	Z14	X15	Y15	Z15	X16	Y16	Z16	X17	Y17	Z17	X18	Y18	Z18	X19	Y19	Z19	X20	Y20	Z20	X21	Y21	Z21	X22	Y22	Z22	X23	Y23	Z23	X24	Y24	Z24	X25	Y25	Z25	X26	Y26	Z26	X27	Y27	Z27
325	5.416666666666667	-75.07653686473297	3832.5961614955067	-522.8201261853882	302.717638716825	3981.5288602562537	-524.8938780330633	636.2926989905052	4145.725006321821	-530.6556826022972	727.0230719846938	4035.8222701923396	-509.58045502771563	735.4066411554323	4067.148917057116	-603.0000455547844	661.9463704179254	4175.198108221925	-517.9131597748709	-109.4004347027167	3907.8437084569146	-340.1068485540448	260.8418732286101	4026.5276052679556	-335.9724514707956	603.3511278071766	4224.689870393357	-354.13186187967926	678.399054370471	4137.620310532761	-244.0792079179607	658.638818133161	4231.073777043664	-225.13907635064245	637.5975481131786	4278.069520114544	-383.3717262284825	-632.8621427429807	3674.6449601831628	-450.4166953587536	-882.1889346465307	3475.479854660592	-357.39192567248085	-701.4702826805415	3510.1626828271264	-306.62786099676816	-556.870954198982	3608.65959136502	-562.8890924268551	-285.87414682549877	3743.12761224205	-665.923226753245	-24.158019718321714	3735.2828483241983	-588.4947424921426	87.50118399151788	3760.0730095294175	-540.0347934713396	108.63919790100789	3769.010643811639	-555.9143394742948	103.70630928456511	3790.051500928309	-590.2104466758283	-617.8176300633149	3824.9147112827786	-343.2631366248236	-380.08325709109266	3958.6837290808703	-285.6745642178921	-134.6640612016155	3933.0537226592214	-197.22589503123746	-15.073476677521336	3969.242526499065	-215.54736110825039	9.20100688529901	3989.2257884317937	-203.56485527160405	-11.806450573273617	4001.539968212711	-189.23536564370937
326	5.433333333333334	-74.28985997459866	3833.20135601724	-523.1705203433804	302.6414196313592	3981.524299233065	-524.7459174070248	636.0947812790204	4135.8522438199025	-528.1995689524217	726.3146252371955	4036.3741389434244	-509.00904520926207	735.2762007974579	4067.4448467255656	-603.2879301632335	661.4411757586934	4175.225438209807	-517.9796117951817	-108.04672048951373	3908.7902485552236	-340.5054619245404	260.8627160852749	4026.5366679994554	-335.9419813574074	604.2310917508042	4226.038067410624	-354.5623054428522	678.5868693514174	4141.726494346995	-248.4077688612652	658.6210690460664	4231.185780324669	-225.21567787855324	635.4252203278655	4273.183814758586	-382.70365136177475	-633.3413413819812	3674.740753650434	-450.53544167679763	-882.2468107123711	3475.761519463728	-358.8299269431092	-702.9680263853762	3513.8805423818653	-309.8748203850574	-556.8688192846912	3608.707847175926	-562.9379613356498	-285.9570715899349	3745.2327459466533	-666.5142093863319	-24.980439366493332	3725.935314462976	-587.5871430260951	89.42008481174827	3764.9929972059354	-543.4607744961311	108.97994744403849	3760.6791660622084	-553.8792933524868	102.88956757763188	3789.7505992283645	-590.1963634461868	-617.6458269515927	3831.922029147409	-344.4528166426473	-380.11724318930135	3957.6261550645313	-284.89495613372776	-134.87955853310152	3928.6934499038457	-196.14795364680208	-16.18914300681896	3968.2602318871363	-215.0704872860098	8.83211864199178	3988.7319780540483	-203.2547582232389	-12.894511679725557	4002.597137037943	-186.7952298358872
327	5.45	-73.8830039691058	3833.3687892042876	-523.2964792673697	302.5136429718146	3981.405733894337	-524.1946556545184	635.5541359899945	4131.477434966173	-527.444443732699	724.3231449783646	4031.422064109719	-507.93840304654	736.121914586995	4071.5743111874076	-606.3494475769724	661.9339336073396	4175.656639372969	-518.0669504368327	-106.81488107531476	3909.5950203451357	-340.84260630428514	260.87841167607655	4026.526427976783	-335.91509253402546	605.4073041609042	4234.281953454513	-356.12635222646406	680.2173820591702	4150.258529350485	-254.08891926250186	658.6883562256975	4231.39912723355	-225.32096121121225	635.0123995836406	4270.6397548714685	-382.30727485503127	-632.0566692803421	3675.3875704888897	-450.7149296769676	-882.2535147727715	3475.749251398657	-358.82279367914543	-703.2361584335051	3515.2719690656036	-311.0906670021886	-556.8779653481056	3608.7725136620084	-562.9932382992097	-286.37864322440305	3749.704140132624	-667.7246332500592	-25.245397169441194	3718.9708628517606	-587.6689287626101	90.55352692840384	3768.320390360044	-547.542637890397	110.14727728183786	3754.364470704518	-552.4282130361678	101.9278545617541	3787.5595858351244	-589.8785640873173	-618.0911407413734	3838.9461311941964	-345.6923240432482	-378.97621762310644	3956.39012900942	-283.7194684210707	-134.56271516340692	3928.1538234514014	-195.8862581948762	-16.12433206039801	3968.1525738701157	-214.9404691079835	9.262763593153153	3988.6640524005065	-202.97469621701111	-13.4271707859682	4007.175863249555	-186.37134338287336
328	5.466666666666667	-74.30018667204997	3832.9213218934515	-523.098215890414	302.42692341219987	3981.236126454228	-523.3364054210153	635.7686492516048	4136.071186576401	-528.9793938726513	722.7550614687044	4025.816578210375	-506.90766901629024	736.6393146968092	4074.3096090788436	-608.3944987007145	662.8838223285145	4176.3798564528715	-518.2019235001069	-106.82464235442195	3909.48946185066	-340.80232257301765	260.8784381609212	4026.4719994986326	-335.8876133632013	606.5369247768288	4242.342826013256	-357.63755390033106	681.5624147874632	4155.065997639023	-256.6984249253992	658.6583173948796	4231.517363979917	-225.39733521156276	636.1263274945327	4272.566855062087	-382.6023036854919	-630.4083200813366	3676.015152698321	-450.8278121042177	-882.2032902234264	3475.47871874422	-357.8096904602933	-702.622662873486	3515.2644755350757	-311.0457219699579	-556.8960675779535	3608.8591535399532	-563.0548329470392	-287.10527656132723	3752.7652773729983	-668.5396498642607	-25.209958277179492	3716.4435290376673	-588.5857465854614	90.88136953677744	3765.3955982379975	-549.6491958136027	111.71234301555171	3749.6578016991507	-551.3801464745931	100.81095171745156	3782.944577500171	-589.5279013014738	-618.4529751563902	3841.9378631667487	-346.21039053727833	-377.11791517062335	3954.3973300032285	-281.88460607318154	-134.28547990247435	3929.8102068145868	-196.19628783847423	-14.899473173642491	3969.02607845301	-215.222347581722	10.223769262468146	3989.132171269272	-202.97450398117715	-13.029014348854643	4011.1077213384247	-186.94753809554086
329	5.483333333333333	-75.09563502411402	3832.2784921511284	-522.7876221188353	302.45776148802406	3981.1939570105715	-522.8241913063142	636.1482413161928	4143.194465517676	-531.0225182427529	723.590951917196	4028.833157054014	-507.74070772674526	735.8622576758918	4071.607043448607	-606.4722627924418	663.3406649211479	4175.975439234412	-518.1188625667987	-108.07146433736733	3908.5214967705538	-340.4061161853307	260.8668913304444	4026.3760570688237	-335.8547824037197	606.5023530379781	4242.13662359011	-357.59617585619804	681.1627740835318	4151.405242227407	-254.25965434242923	658.202257772697	4231.471226741175	-225.4374698834197	636.8592847386207	4274.323170880187	-382.8698636064511	-629.5671034756909	3676.3201049893705	-450.8657182807081	-882.1412587858366	3475.1874851006505	-357.02790671265467	-702.1614190125374	3514.9866759564165	-310.7626950003303	-556.914728928787	3608.9594258270654	-563.1159845883517	-288.0155378210123	3752.7796036847867	-668.5702283376688	-25.538938230725122	3715.9672843259377	-589.6332836430672	90.69273228449602	3756.3130073889197	-548.9741004891741	112.80203299011022	3742.94843942722	-549.9669536659908	99.34734846069371	3777.259797999199	-589.8083133365559	-618.5340977174894	3841.862659373456	-346.1907331015243	-376.1296464664237	3953.121915697357	-280.75655448791946	-134.72252999014455	3933.2032840932684	-196.92212654031792	-13.587895482962441	3970.1160658625186	-215.61466429071055	11.159734381129683	3989.790360114208	-203.1695284118487	-12.224288579070176	4012.0963014430445	-187.40238690535227
